<svg width="85" height="84" viewBox="0 0 85 84" fill="none" xmlns="http://www.w3.org/2000/svg">
<path d="M84.061 42.0437C84.061 65.2595 65.3205 84 42.1047 84C18.8889 84 0.148438 65.2595 0.148438 42.0437C0.148438 18.8279 18.8889 0.0874023 42.1047 0.0874023C65.3205 0.0874023 84.061 18.8279 84.061 42.0437Z" fill="#34E392"/>
<path d="M83.7835 15.7511C83.0842 11.975 80.9864 8.89825 77.4901 7.91927C73.714 6.94029 70.3575 8.33883 67.1409 11.6953C65.3227 6.66058 62.5257 2.88451 58.0503 0.92655C53.575 -1.03141 49.0996 0.367132 46.3026 3.86349C43.3656 7.4997 42.2468 13.2337 45.3236 20.646C48.2605 27.6387 61.267 41.6242 61.6865 42.0437C62.2459 41.764 76.7908 32.6735 80.2872 28.1981C83.7835 23.8627 84.4828 19.5272 83.7835 15.7511ZM37.9113 3.86349C35.1142 0.367132 30.6389 -1.03141 26.1635 0.92655C21.6882 2.88451 18.8911 6.66058 17.073 11.6953C13.7165 8.47868 10.36 6.94028 6.58393 8.05912C3.22743 9.0381 0.989759 12.1149 0.290488 15.891C-0.408784 19.5272 0.430342 24.0025 3.78685 28.338C7.42306 32.6735 21.9679 41.764 22.5273 42.0437C22.9469 41.6242 35.9533 27.6387 38.8903 20.646C41.9671 13.2337 40.8482 7.63956 37.9113 3.86349Z" fill="#F46767"/>
<path d="M65.8786 50.5749C65.8786 49.456 65.1793 48.0575 63.3612 47.6379C58.4663 46.6589 51.3337 45.8198 42.1034 45.8198C32.873 45.8198 25.7404 46.7988 20.8455 47.6379C18.8875 48.0575 18.3281 49.456 18.3281 50.5749C18.3281 60.7842 26.16 70.9936 42.1034 70.9936C58.0468 70.8537 65.8786 60.6444 65.8786 50.5749Z" fill="#664E27"/>
<path d="M59.8657 50.8545C56.7889 50.2951 50.3556 49.456 42.1042 49.456C33.8528 49.456 27.4195 50.2951 24.3427 50.8545C22.5246 51.1342 22.3848 51.8335 22.5246 52.9524C22.6645 53.5118 22.6645 54.3509 22.9442 55.19C23.084 56.0291 23.3637 56.4487 24.7623 56.3089C27.4195 56.0291 56.9288 56.0291 59.586 56.3089C60.9845 56.4487 61.1244 56.0291 61.4041 55.19C61.544 54.3509 61.6838 53.6516 61.8237 52.9524C61.8237 51.8335 61.6838 51.1342 59.8657 50.8545Z" fill="white"/>
</svg>
