<svg width="85" height="84" viewBox="0 0 85 84" fill="none" xmlns="http://www.w3.org/2000/svg">
<path d="M0.6875 42C0.6875 65.24 19.4475 84 42.6875 84C65.9275 84 84.6875 65.24 84.6875 42C84.6875 18.76 65.9275 0 42.6875 0C19.4475 0 0.6875 18.76 0.6875 42Z" fill="#FFDD67"/>
<path d="M65.7891 20.02C65.7891 33.88 84.6891 33.88 84.6891 20.02C84.6891 9.94 75.3091 0 75.3091 0C75.3091 0 65.7891 9.94 65.7891 20.02Z" fill="#65B1EF"/>
<path d="M58.7891 54.6C62.6551 54.6 65.7891 51.466 65.7891 47.6C65.7891 43.734 62.6551 40.6 58.7891 40.6C54.9231 40.6 51.7891 43.734 51.7891 47.6C51.7891 51.466 54.9231 54.6 58.7891 54.6Z" fill="#664E27"/>
<path d="M26.5859 54.6C30.4519 54.6 33.5859 51.466 33.5859 47.6C33.5859 43.734 30.4519 40.6 26.5859 40.6C22.7199 40.6 19.5859 43.734 19.5859 47.6C19.5859 51.466 22.7199 54.6 26.5859 54.6Z" fill="#664E27"/>
<path d="M33.7224 27.86C29.2424 31.64 23.2223 33.32 17.3424 32.2C16.5024 32.06 15.8024 35 16.7824 35.28C23.5024 36.54 30.5023 34.58 35.6824 30.24C36.3823 29.54 34.2824 27.3 33.7224 27.86ZM68.0223 32.06C62.1423 33.04 56.1224 31.5 51.6424 27.72C51.0824 27.16 48.8424 29.4 49.6824 30.1C54.8624 34.58 61.8623 36.4 68.5823 35.14C69.5623 34.86 68.8623 31.92 68.0223 32.06Z" fill="#917524"/>
<path d="M53.8891 70H31.4891C29.3891 70 29.3891 64.4 31.4891 64.4H53.8891C55.9891 64.4 55.9891 70 53.8891 70Z" fill="#664E27"/>
</svg>
