<svg width="85" height="84" viewBox="0 0 85 84" fill="none" xmlns="http://www.w3.org/2000/svg">
<path d="M42.8047 84C66.0006 84 84.8047 65.196 84.8047 42C84.8047 18.804 66.0006 0 42.8047 0C19.6087 0 0.804688 18.804 0.804688 42C0.804688 65.196 19.6087 84 42.8047 84Z" fill="#EF5350"/>
<path d="M55.3752 66.7803C47.2552 60.0603 38.2952 60.0603 30.1752 66.7803C29.1952 67.6203 28.3552 66.2203 29.0552 64.9603C31.5752 60.2003 36.4752 55.8603 42.7752 55.8603C49.0752 55.8603 54.1152 60.2003 56.4952 64.9603C57.1952 66.0803 56.3552 67.4803 55.3752 66.7803Z" fill="#302424"/>
<path d="M12.3101 32.0602C10.2101 38.6402 13.1501 46.0602 19.7301 49.0002C26.1701 52.0802 33.7301 49.7002 37.5101 43.8202L27.8501 33.0402L12.3101 32.0602Z" fill="white"/>
<path d="M17.9868 33.3204C16.0268 37.3804 17.8468 42.2804 21.9068 44.1004C25.9668 46.0604 30.8668 44.2404 32.6868 40.1804C34.0868 37.5204 19.2468 30.6604 17.9868 33.3204Z" fill="#302424"/>
<path d="M12.3516 32.0606C14.5916 30.6606 17.2516 29.9606 19.9116 29.9606C22.5716 29.9606 25.2316 30.6606 27.7516 31.7806C30.1316 32.9006 32.3716 34.5806 34.1916 36.5406C35.8716 38.6406 37.2716 41.0206 37.5516 43.6806C35.7316 41.8606 33.9116 40.3206 31.9516 38.9206C29.9916 37.5206 28.0316 36.4006 26.0716 35.5606C23.9716 34.5806 21.8716 33.8806 19.6316 33.1806C17.1116 32.7606 14.8716 32.3406 12.3516 32.0606Z" fill="#302424"/>
<path d="M73.3406 32.0602C75.4406 38.6402 72.5006 46.0602 65.9206 49.0002C59.4806 52.0802 51.9206 49.7002 48.1406 43.8202L57.8006 33.0402L73.3406 32.0602Z" fill="white"/>
<path d="M67.754 33.3202C69.714 37.3802 67.894 42.2802 63.834 44.1002C59.774 46.0602 54.874 44.2403 53.054 40.1803C51.654 37.5203 66.494 30.6602 67.754 33.3202Z" fill="#302424"/>
<path d="M73.3406 32.0604C71.1006 30.6604 68.4406 29.9604 65.7806 29.9604C63.1206 29.9604 60.4606 30.6604 57.9406 31.7804C55.5606 32.9004 53.3206 34.5804 51.5006 36.5404C49.8206 38.6404 48.4206 41.0204 48.1406 43.6804C49.9606 41.8604 51.7806 40.3204 53.7406 38.9204C55.7006 37.5204 57.6606 36.4004 59.6206 35.5604C61.7206 34.5804 63.8206 33.8804 66.0606 33.1804C68.5806 32.7604 70.8206 32.3404 73.3406 32.0604Z" fill="#302424"/>
</svg>
