<svg width="113" height="54" viewBox="0 0 113 54" fill="none" xmlns="http://www.w3.org/2000/svg">
<path d="M30.3857 40.7784V38.9927L32.7802 38.7898C32.8884 38.7898 32.9899 38.7222 33.0846 38.5869C33.1793 38.4381 33.2266 38.3028 33.2266 38.181C33.2266 38.1269 33.2199 38.0931 33.2063 38.0796L30.3451 30.4699H20.7469L17.9871 37.9578C17.9736 37.9849 17.9668 38.0255 17.9668 38.0796C17.9668 38.2419 18.0344 38.4042 18.1697 38.5666C18.3185 38.7154 18.4538 38.7898 18.5756 38.7898L21.0309 38.9927V40.7784H12.6705V38.9927L15.0853 38.4854L24.7647 12.2271H27.8898L37.5286 37.8766C37.6233 38.1607 37.7112 38.3501 37.7924 38.4448C37.8871 38.5395 38.09 38.6139 38.4012 38.668L40.2681 38.9927V40.7784H30.3857ZM25.5156 17.5843L21.4774 28.4813H29.5943L25.5156 17.5843ZM59.7081 40.7784V39.5L51.9767 28.4001H49.0749V37.9172C49.0749 38.1201 49.1493 38.3163 49.2982 38.5057C49.4605 38.6951 49.6905 38.8033 49.9881 38.8304L52.3623 38.9927V40.7784H41.8103V38.9927L44.0019 38.8304C44.2995 38.8033 44.5159 38.6951 44.6512 38.5057C44.8 38.3163 44.8744 38.1201 44.8744 37.9172V15.758C44.8744 15.5551 44.8 15.3589 44.6512 15.1695C44.5159 14.9801 44.2995 14.8719 44.0019 14.8449L41.8103 14.6825V12.8968H52.3623V14.6825L49.9881 14.8449C49.6905 14.8719 49.4605 14.9801 49.2982 15.1695C49.1493 15.3589 49.0749 15.5551 49.0749 15.758V26.655H50.5766L59.6269 15.5957C59.6811 15.5416 59.7081 15.4672 59.7081 15.3725C59.7081 15.2642 59.6675 15.1628 59.5864 15.0681C59.5052 14.9598 59.4105 14.899 59.3023 14.8854L57.1716 14.6825V12.8968H65.9784V14.6825C65.4914 14.7231 65.0518 14.7705 64.6594 14.8246C64.3212 14.8652 64.0033 14.9057 63.7057 14.9463C63.4081 14.9734 63.2254 14.9937 63.1578 15.0072L54.6756 25.1534L63.9898 38.7898L66.9931 38.9927V40.7784H59.7081ZM93.0687 14.8449C92.7711 14.8719 92.5478 14.9801 92.399 15.1695C92.2638 15.3589 92.1961 15.5551 92.1961 15.758V31.5454C92.1961 33.25 91.9661 34.7246 91.5062 35.9692C91.0462 37.2138 90.363 38.2419 89.4566 39.0536C88.5638 39.8653 87.4477 40.4673 86.1084 40.8596C84.7827 41.2519 83.254 41.4481 81.5224 41.4481C78.0862 41.4481 75.5361 40.6161 73.8721 38.9521C72.2082 37.2882 71.3762 34.8193 71.3762 31.5454V15.758C71.3762 15.5551 71.3018 15.3589 71.153 15.1695C71.0177 14.9801 70.8012 14.8719 70.5036 14.8449L68.2918 14.6825V12.8968H78.8641V14.6825L76.4899 14.8449C76.1922 14.8719 75.969 14.9801 75.8202 15.1695C75.6849 15.3589 75.6173 15.5551 75.6173 15.758V30.4699C75.6173 31.6875 75.712 32.8036 75.9014 33.8182C76.0908 34.8193 76.4425 35.6783 76.9566 36.3953C77.4707 37.1123 78.1809 37.6737 79.0873 38.0796C80.0072 38.4719 81.1909 38.668 82.6384 38.668C84.0724 38.668 85.2494 38.4584 86.1693 38.039C87.0892 37.6196 87.813 37.0447 88.3406 36.3141C88.8682 35.5701 89.2334 34.6975 89.4364 33.6964C89.6393 32.6953 89.7407 31.6198 89.7407 30.4699V15.758C89.7407 15.5551 89.6596 15.3589 89.4972 15.1695C89.3484 14.9801 89.1252 14.8719 88.8276 14.8449L86.4534 14.6825V12.8968H95.4835V14.6825L93.0687 14.8449Z" fill="#004BAC"/>
<line x1="69.4623" y1="2.4606" x2="109.636" y2="2.4606" stroke="#2AB474" stroke-width="0.593695"/>
<line x1="71.2434" y1="5.03323" x2="111.417" y2="5.03323" stroke="#136DD7" stroke-width="0.593695"/>
<line x1="72.8267" y1="7.21017" x2="113" y2="7.21017" stroke="#2AB474" stroke-width="0.593695"/>
<line y1="48.1751" x2="40.1734" y2="48.1751" stroke="#2AB474" stroke-width="0.593695"/>
<line x1="1.78107" y1="50.7478" x2="41.9544" y2="50.7478" stroke="#136DD7" stroke-width="0.593695"/>
<line x1="3.36426" y1="52.9246" x2="43.5376" y2="52.9246" stroke="#2AB474" stroke-width="0.593695"/>
</svg>
