<svg width="133" height="191" viewBox="0 0 133 191" fill="none" xmlns="http://www.w3.org/2000/svg">
<path d="M19.2082 114.417V171.167H113.792V114.417H19.2082ZM113.792 95.5C118.809 95.5 123.62 97.493 127.168 101.041C130.715 104.588 132.708 109.4 132.708 114.417V171.167C132.708 176.184 130.715 180.995 127.168 184.543C123.62 188.09 118.809 190.083 113.792 190.083H19.2082C14.1912 190.083 9.37963 188.09 5.83207 184.543C2.2845 180.995 0.291504 176.184 0.291504 171.167V114.417C0.291504 109.4 2.2845 104.588 5.83207 101.041C9.37963 97.493 14.1912 95.5 19.2082 95.5V48.2084C19.2082 35.6658 24.1907 23.637 33.0596 14.7681C41.9285 5.89919 53.9573 0.916687 66.4998 0.916687C79.0424 0.916687 91.0712 5.89919 99.9401 14.7681C108.809 23.637 113.792 35.6658 113.792 48.2084V95.5ZM94.8748 95.5V48.2084C94.8748 44.4821 94.1409 40.7923 92.7149 37.3497C91.2889 33.9071 89.1989 30.7791 86.564 28.1442C83.9291 25.5093 80.8011 23.4192 77.3585 21.9933C73.9159 20.5673 70.2261 19.8334 66.4998 19.8334C62.7736 19.8334 59.0838 20.5673 55.6412 21.9933C52.1986 23.4192 49.0705 25.5093 46.4357 28.1442C43.8008 30.7791 41.7107 33.9071 40.2848 37.3497C38.8588 40.7923 38.1248 44.4821 38.1248 48.2084V95.5H94.8748ZM66.4998 161.708C61.4828 161.708 56.6713 159.715 53.1237 156.168C49.5762 152.62 47.5832 147.809 47.5832 142.792C47.5832 137.775 49.5762 132.963 53.1237 129.416C56.6713 125.868 61.4828 123.875 66.4998 123.875C71.5169 123.875 76.3284 125.868 79.8759 129.416C83.4235 132.963 85.4165 137.775 85.4165 142.792C85.4165 147.809 83.4235 152.62 79.8759 156.168C76.3284 159.715 71.5169 161.708 66.4998 161.708Z" fill="black"/>
</svg>
