<svg width="133" height="191" viewBox="0 0 133 191" fill="none" xmlns="http://www.w3.org/2000/svg">
<path d="M19.2087 114.417V171.167H113.792V114.417H19.2087ZM94.8753 48.2084C94.8753 44.4821 94.1414 40.7923 92.7154 37.3497C91.2894 33.9071 89.1994 30.7791 86.5645 28.1442C83.9296 25.5093 80.8016 23.4192 77.359 21.9933C73.9164 20.5673 70.2266 19.8334 66.5003 19.8334C62.7741 19.8334 59.0843 20.5673 55.6417 21.9933C52.1991 23.4192 49.071 25.5093 46.4362 28.1442C43.8013 30.7791 41.7112 33.9071 40.2852 37.3497C38.8593 40.7923 38.1253 44.4821 38.1253 48.2084V95.5H113.792C118.809 95.5 123.621 97.493 127.168 101.041C130.716 104.588 132.709 109.4 132.709 114.417V171.167C132.709 176.184 130.716 180.995 127.168 184.543C123.621 188.09 118.809 190.083 113.792 190.083H19.2087C14.1916 190.083 9.38012 188.09 5.83256 184.543C2.28499 180.995 0.291992 176.184 0.291992 171.167V114.417C0.291992 109.4 2.28499 104.588 5.83256 101.041C9.38012 97.493 14.1916 95.5 19.2087 95.5V48.2084C19.2087 35.6658 24.1912 23.637 33.0601 14.7681C41.929 5.89919 53.9578 0.916687 66.5003 0.916687C79.0429 0.916687 91.0717 5.89919 99.9406 14.7681C108.81 23.637 113.792 35.6658 113.792 48.2084C113.792 50.7169 112.795 53.1226 111.022 54.8964C109.248 56.6702 106.842 57.6667 104.334 57.6667C101.825 57.6667 99.4194 56.6702 97.6456 54.8964C95.8718 53.1226 94.8753 50.7169 94.8753 48.2084ZM66.5003 161.708C61.4833 161.708 56.6718 159.715 53.1242 156.168C49.5767 152.62 47.5837 147.809 47.5837 142.792C47.5837 137.775 49.5767 132.963 53.1242 129.416C56.6718 125.868 61.4833 123.875 66.5003 123.875C71.5173 123.875 76.3289 125.868 79.8764 129.416C83.424 132.963 85.417 137.775 85.417 142.792C85.417 147.809 83.424 152.62 79.8764 156.168C76.3289 159.715 71.5173 161.708 66.5003 161.708Z" fill="black"/>
</svg>
